<svg width="282" height="52" viewBox="0 0 282 52" fill="none" xmlns="http://www.w3.org/2000/svg">
<g filter="url(#filter0_d_6_129)">
<path d="M17.3883 22.9712L27.1848 22.8855C28.7941 22.8714 30.1487 22.3205 31.2486 21.2327C32.364 20.1292 32.913 18.5852 32.8957 16.6009C32.8827 15.1166 32.2852 13.7937 31.1031 12.6321C29.9209 11.4549 28.5798 10.8728 27.0798 10.886L12.596 11.0126L12.8617 41.3865L11.1742 41.4012L10.8938 9.33996L27.0651 9.19852C29.0337 9.1813 30.7747 9.92392 32.2879 11.4264C33.8011 12.9288 34.5662 14.6488 34.5831 16.5862C34.604 18.9767 33.8943 20.9049 32.4539 22.3706C31.0134 23.8208 29.262 24.5549 27.1995 24.5729L17.403 24.6586L17.3883 22.9712ZM17.4178 26.3461L27.2143 26.2604C28.8392 26.2462 30.3358 25.8424 31.7039 25.0492C33.0875 24.2402 34.1947 23.0898 35.0254 21.5981C35.8717 20.1063 36.2868 18.4307 36.2705 16.5714C36.2495 14.1653 35.3091 12.0484 33.4493 10.2209C31.6051 8.39316 29.4721 7.48991 27.0503 7.51109L9.19162 7.66729L9.4868 41.416L7.79937 41.4308L7.48943 5.99461L27.0356 5.82365C28.9261 5.80712 30.7117 6.29152 32.3922 7.27686C34.0728 8.2622 35.4125 9.58647 36.4115 11.2497C37.4261 12.9127 37.9416 14.6817 37.958 16.5567C37.9766 18.6816 37.4935 20.6234 36.5089 22.3821C35.5241 24.1251 34.2078 25.4882 32.5601 26.4714C30.9279 27.4389 29.1509 27.931 27.2291 27.9478L17.4326 28.0335L17.4178 26.3461ZM17.4473 29.7209L27.2438 29.6352C28.9156 29.6206 30.5143 29.2785 32.0397 28.6089C33.565 27.9236 34.8852 27.0136 36.0004 25.8788C37.131 24.7283 38.0252 23.3454 38.6829 21.7302C39.3406 20.0994 39.6614 18.37 39.6454 16.5419C39.6263 14.3545 39.038 12.3049 37.8806 10.393C36.7231 8.46559 35.1706 6.94004 33.2232 5.81641C31.2913 4.67701 29.2238 4.11695 27.0208 4.13622L5.78723 4.32193L6.11193 41.4455L4.42449 41.4603L4.08504 2.64926L27.006 2.44878C29.5059 2.42692 31.8553 3.06264 34.0542 4.35596C36.253 5.63365 38.0104 7.36054 39.3263 9.53661C40.6423 11.7127 41.3111 14.0429 41.3328 16.5271C41.3522 18.7458 40.9874 20.796 40.2382 22.6776C39.4888 24.5436 38.4711 26.0994 37.1851 27.3451C35.8991 28.5908 34.3997 29.5648 32.6871 30.2673C30.9743 30.9542 29.1648 31.306 27.2586 31.3227L17.4621 31.4084L17.4473 29.7209ZM16.2365 41.357L14.5491 41.3717L14.2982 12.6853L27.0946 12.5734C28.2039 12.5637 29.1606 12.9616 29.9645 13.7671C30.7841 14.5725 31.1987 15.522 31.2082 16.6157C31.2347 19.6468 29.8887 21.1743 27.17 21.1981L17.3735 21.2837L17.3588 19.5963L27.1553 19.5106C27.9052 19.5041 28.4893 19.288 28.9075 18.8625C29.3256 18.4369 29.5301 17.6929 29.5208 16.6305C29.5148 15.943 29.2754 15.3747 28.8027 14.9257C28.3457 14.4766 27.7812 14.255 27.1094 14.2608L16.0004 14.358L16.2365 41.357ZM57.952 19.3585C56.651 20.6824 56.0087 22.274 56.0249 24.1333C56.0412 25.9926 56.7114 27.5806 58.0354 28.8972C59.375 30.198 60.9744 30.8403 62.8337 30.824C64.693 30.8078 66.2732 30.1377 67.5741 28.8137C68.8906 27.474 69.5407 25.8745 69.5244 24.0152C69.5082 22.1559 68.8302 20.5759 67.4907 19.275C66.1666 17.9584 64.5749 17.3083 62.7156 17.3245C60.8563 17.3408 59.2685 18.0188 57.952 19.3585ZM56.8506 30.1029C55.1956 28.461 54.3579 26.4761 54.3375 24.1481C54.3171 21.82 55.1201 19.8286 56.7463 18.1736C58.388 16.503 60.3728 15.6575 62.7009 15.6371C65.0289 15.6167 67.0205 16.4275 68.6755 18.0693C70.346 19.6954 71.1915 21.6724 71.2119 24.0005C71.2322 26.3285 70.4215 28.3279 68.7798 29.9985C67.1536 31.6535 65.1765 32.4911 62.8485 32.5115C60.5204 32.5318 58.5211 31.729 56.8506 30.1029ZM55.5406 16.9888C53.5892 18.9904 52.6257 21.3817 52.6501 24.1628C52.6744 26.944 53.6796 29.3181 55.6656 31.2852C57.6672 33.2521 60.0665 34.2234 62.8632 34.1989C65.66 34.1744 68.034 33.1614 69.9854 31.1599C71.9523 29.1583 72.9236 26.7669 72.8993 23.9857C72.875 21.2046 71.862 18.8305 69.8603 16.8636C67.8743 14.8965 65.4829 13.9252 62.6861 13.9497C59.8894 13.9741 57.5075 14.9872 55.5406 16.9888ZM52.5847 30.0933C51.5221 28.29 50.9813 26.3181 50.9626 24.1776C50.9439 22.037 51.45 20.056 52.481 18.2344C53.5276 16.4127 54.9526 14.9705 56.7558 13.9078C58.559 12.8295 60.5308 12.2809 62.6714 12.2622C64.8119 12.2435 66.793 12.7574 68.6148 13.8041C70.4363 14.835 71.8785 16.2522 72.9412 18.0554C74.0195 19.8586 74.568 21.8304 74.5867 23.971C74.6054 26.1115 74.0915 28.0926 73.0449 29.9144C72.0139 31.7359 70.5969 33.1859 68.7937 34.2642C66.9904 35.3269 65.0185 35.8676 62.878 35.8863C60.7374 35.905 58.7564 35.3989 56.9348 34.3679C55.1131 33.3213 53.663 31.8965 52.5847 30.0933ZM50.2841 18.9568C49.5955 20.6191 49.2592 22.3643 49.2752 24.1923C49.2912 26.0204 49.658 27.7673 50.3758 29.4329C51.109 31.0828 52.0824 32.5119 53.2962 33.72C54.5254 34.9125 55.9712 35.8608 57.6337 36.565C59.3117 37.2535 61.0647 37.5897 62.8927 37.5738C64.7208 37.5578 66.4598 37.191 68.1099 36.4734C69.7754 35.7401 71.2044 34.7666 72.397 33.553C73.605 32.3236 74.5534 30.8778 75.242 29.2154C75.9461 27.5373 76.2901 25.7843 76.2742 23.9562C76.2582 22.1281 75.8836 20.3892 75.1504 18.7393C74.4326 17.0736 73.4592 15.6446 72.2299 14.4521C71.0162 13.244 69.5704 12.2956 67.8924 11.6072C66.2299 10.9029 64.4847 10.5588 62.6566 10.5748C60.8285 10.5908 59.0818 10.9654 57.4162 11.6988C55.7662 12.4164 54.3372 13.3898 53.1291 14.6192C51.9366 15.8328 50.9882 17.2787 50.2841 18.9568ZM48.8347 30.1027C48.0214 28.2347 47.6058 26.2695 47.5878 24.2071C47.5697 22.1447 47.9509 20.1725 48.7314 18.2906C49.5274 16.4086 50.5914 14.7898 51.9234 13.4344C53.2708 12.0632 54.8785 10.971 56.7465 10.1577C58.6143 9.32885 60.5794 8.90539 62.6418 8.88735C64.7043 8.86932 66.6765 9.25833 68.5585 10.0544C70.4404 10.8348 72.0592 11.8989 73.4148 13.2464C74.7858 14.5782 75.878 16.1781 76.6912 18.0461C77.5201 19.9139 77.9436 21.879 77.9616 23.9414C77.9796 26.0039 77.5906 27.9761 76.7945 29.8581C76.0141 31.74 74.9502 33.3666 73.6027 34.7378C72.2708 36.0932 70.6709 37.1854 68.8031 38.0143C66.9351 38.8275 64.9699 39.2432 62.9075 39.2612C60.8451 39.2792 58.8729 38.898 56.991 38.1176C55.109 37.3215 53.4824 36.2576 52.1114 34.9258C50.7558 33.5782 49.6635 31.9705 48.8347 30.1027ZM47.179 17.6714C46.3066 19.7572 45.8804 21.9407 45.9003 24.2219C45.9203 26.503 46.3847 28.6865 47.2936 30.7724C48.2024 32.8427 49.4133 34.629 50.9265 36.1315C52.4552 37.6182 54.2625 38.7977 56.3483 39.6701C58.4498 40.5424 60.6411 40.9686 62.9223 40.9486C65.2034 40.9287 67.3791 40.4643 69.4494 39.5556C71.5353 38.6467 73.3216 37.4357 74.8084 35.9226C76.3108 34.3938 77.4981 32.5865 78.3705 30.5006C79.2428 28.3992 79.669 26.2078 79.649 23.9267C79.6291 21.6455 79.1647 19.4698 78.256 17.3996C77.347 15.3137 76.1283 13.5274 74.5996 12.0407C73.0864 10.5383 71.279 9.35089 69.1776 8.47861C67.0917 7.6062 64.9082 7.17997 62.6271 7.19992C60.3459 7.21987 58.1624 7.6843 56.0765 8.5932C54.0063 9.50197 52.22 10.7208 50.7177 12.2496C49.2308 13.7626 48.0513 15.5699 47.179 17.6714ZM45.7525 31.4422C44.7481 29.154 44.2349 26.7522 44.2129 24.2366C44.1909 21.7211 44.6621 19.3184 45.6265 17.0287C46.5907 14.7233 47.8937 12.7352 49.5354 11.0646C51.1771 9.3939 53.1342 8.05641 55.4068 7.05212C57.6949 6.0477 60.0968 5.53448 62.6123 5.51248C65.1279 5.49048 67.5305 5.96167 69.8203 6.92606C72.1257 7.89031 74.1137 9.19328 75.7844 10.835C77.4551 12.4767 78.7926 14.4416 79.797 16.7298C80.8013 19.0024 81.3145 21.3964 81.3365 23.9119C81.3585 26.4275 80.8873 28.8379 79.9231 31.1433C78.9587 33.4331 77.6557 35.4133 76.014 37.084C74.3723 38.7547 72.4073 40.0922 70.1191 41.0966C67.8466 42.1009 65.4526 42.6141 62.937 42.6361C60.4215 42.6581 58.011 42.1869 55.7056 41.2227C53.4159 40.2583 51.4356 38.9553 49.765 37.3136C48.0943 35.6719 46.7568 33.7147 45.7525 31.4422ZM107.298 25.6068L107.133 6.81065L108.821 6.79589L108.985 25.592C109.001 27.3732 108.327 28.9104 106.963 30.2037C105.615 31.4968 103.98 32.1517 102.058 32.1685C100.136 32.1853 98.4821 31.5591 97.096 30.29C95.7254 29.0207 95.0324 27.4954 95.0168 25.7142L94.8524 6.91806L96.5399 6.9033L96.7043 25.6995C96.7159 27.0275 97.2414 28.1636 98.281 29.1077C99.336 30.036 100.59 30.4938 102.043 30.4811C103.496 30.4684 104.734 29.9888 105.757 29.0423C106.796 28.08 107.309 26.9349 107.298 25.6068ZM110.672 25.5773L110.508 6.78113L112.196 6.76637L112.36 25.5625C112.384 28.2968 111.389 30.6415 109.374 32.5967C107.36 34.5363 104.931 35.5185 102.087 35.5434C99.2438 35.5683 96.798 34.6287 94.75 32.7246C92.7019 30.805 91.6659 28.478 91.6419 25.7437L91.4775 6.94758L93.165 6.93282L93.3294 25.729C93.3492 27.9945 94.2099 29.9246 95.9114 31.5191C97.6284 33.0979 99.6821 33.8769 102.073 33.8559C104.448 33.8352 106.48 33.0205 108.169 31.4119C109.858 29.7877 110.692 27.8428 110.672 25.5773ZM114.047 25.5478L113.883 6.75161L115.57 6.73686L115.735 25.533C115.756 27.9235 115.158 30.1476 113.941 32.2052C112.725 34.2472 111.067 35.8711 108.968 37.077C106.869 38.2829 104.586 38.8967 102.117 38.9183C99.6483 38.9398 97.3541 38.3661 95.2344 37.1971C93.1148 36.0281 91.4289 34.4334 90.1768 32.4131C88.9246 30.3771 88.288 28.1638 88.2671 25.7733L88.1027 6.9771L89.7901 6.96234L89.9545 25.7585C89.9727 27.8365 90.5286 29.7614 91.6223 31.5332C92.7159 33.3049 94.1892 34.7062 96.042 35.7369C97.9103 36.7518 99.9304 37.2498 102.102 37.2308C104.274 37.2118 106.277 36.6787 108.112 35.6313C109.962 34.5682 111.418 33.1414 112.481 31.3508C113.543 29.5601 114.066 27.6258 114.047 25.5478ZM117.422 25.5183L117.258 6.7221L118.945 6.70734L119.11 25.5035C119.129 27.7534 118.695 29.9135 117.807 31.9839C116.919 34.0386 115.715 35.8148 114.197 37.3125C112.679 38.8102 110.869 40.0058 108.767 40.8992C106.666 41.8083 104.459 42.2729 102.146 42.2931C99.8341 42.3134 97.6193 41.8874 95.5022 41.0152C93.3853 40.1587 91.5547 38.995 90.0105 37.5241C88.4664 36.0532 87.2322 34.2983 86.3081 32.2594C85.3838 30.2049 84.9119 28.0527 84.8922 25.8028L84.7278 7.00662L86.4152 6.99186L86.5796 25.788C86.6031 28.4754 87.3124 30.9615 88.7074 33.2463C90.1181 35.5309 92.009 37.3347 94.38 38.6578C96.7667 39.9807 99.3506 40.63 102.132 40.6057C104.913 40.5814 107.477 39.887 109.825 38.5227C112.188 37.1582 114.047 35.3216 115.402 33.0128C116.772 30.7038 117.446 28.2057 117.422 25.5183ZM136.445 24.4143L143.593 24.3518C144.999 24.3395 146.19 23.9072 147.167 23.0549C148.144 22.2026 148.626 21.0108 148.613 19.4796C148.602 18.2921 148.077 17.2342 147.038 16.3058C145.999 15.3773 144.823 14.9188 143.51 14.9303L131.698 15.0336L131.92 40.3452L130.232 40.3599L129.996 13.3609L143.496 13.2429C145.292 13.2272 146.868 13.8462 148.223 15.1C149.593 16.3537 150.286 17.8087 150.3 19.4648C150.318 21.4491 149.675 23.0408 148.373 24.2397C147.071 25.423 145.482 26.0229 143.607 26.0393L136.459 26.1018L136.445 24.4143ZM136.474 27.7892L143.622 27.7267C145.935 27.7065 147.912 26.9235 149.555 25.3778C151.198 23.8322 152.009 21.8562 151.988 19.4501C151.969 17.3408 151.109 15.4967 149.408 13.9177C147.706 12.3232 145.731 11.5358 143.481 11.5554L128.294 11.6883L128.545 40.3747L126.857 40.3894L126.592 10.0156L143.466 9.868C146.185 9.84422 148.56 10.7922 150.593 12.712C152.625 14.6162 153.653 16.8573 153.675 19.4353C153.7 22.2477 152.72 24.6079 150.737 26.516C148.769 28.4239 146.402 29.3899 143.637 29.4141L136.489 29.4766L136.474 27.7892ZM136.504 31.1641L143.652 31.1016C145.761 31.0831 147.71 30.5661 149.498 29.5504C151.301 28.5346 152.735 27.1313 153.797 25.3407C154.86 23.5501 155.381 21.5767 155.363 19.4206C155.345 17.4363 154.79 15.5739 153.696 13.8334C152.619 12.0927 151.161 10.7148 149.324 9.69957C147.503 8.66859 145.545 8.16225 143.451 8.18056L124.889 8.34291L125.17 40.4042L123.482 40.4189L123.187 6.67024L143.437 6.49313C145.218 6.47755 146.939 6.81407 148.602 7.50268C150.28 8.19115 151.733 9.12379 152.962 10.3006C154.191 11.4618 155.172 12.8439 155.905 14.4469C156.653 16.0341 157.035 17.6871 157.05 19.4058C157.068 21.4214 156.724 23.276 156.02 24.9697C155.316 26.6634 154.352 28.0782 153.128 29.2139C151.903 30.3341 150.473 31.206 148.838 31.8297C147.218 32.4532 145.495 32.773 143.666 32.789L136.518 32.8515L136.504 31.1641ZM135.295 40.3156L133.607 40.3304L133.4 16.7063L143.525 16.6177C144.447 16.6097 145.238 16.8918 145.9 17.4642C146.577 18.0208 146.918 18.6975 146.925 19.4944C146.944 21.588 145.828 22.6447 143.578 22.6644L136.43 22.7269L136.415 21.0395L143.563 20.9769C144.688 20.9671 145.246 20.4778 145.238 19.5091C145.235 19.1654 145.068 18.8778 144.738 18.6463C144.408 18.4148 144.009 18.3011 143.54 18.3052L135.103 18.379L135.295 40.3156ZM177.685 28.5538L178.35 26.8604L184.116 26.81L184.81 28.4915L177.685 28.5538ZM176.403 31.9402L177.044 30.247L185.458 30.1734L186.199 31.8545L176.403 31.9402ZM175.12 35.3265L175.761 33.6333L186.823 33.5366L187.541 35.2179L175.12 35.3265ZM161.45 40.0869L159.622 40.1029L174.633 1.15757L176.461 1.14159L192.128 39.8185L190.324 39.8343L175.567 3.42293L161.45 40.0869ZM175.813 7.42875L176.793 9.57651L165.059 40.0553L163.254 40.0711L175.813 7.42875ZM177.727 11.8653L178.638 14.1777L168.715 40.0233L166.887 40.0393L177.727 11.8653ZM179.549 16.4902L180.46 18.8495L172.324 39.9918L170.52 40.0075L179.549 16.4902ZM203.026 39.7232L201.198 39.7392L185.531 1.06226L187.336 1.04647L203.026 39.7232ZM183.703 1.07824L199.394 39.755L197.589 39.7708L181.899 1.09403L183.703 1.07824ZM180.071 1.11002L195.761 39.7868L193.933 39.8028L178.266 1.1258L180.071 1.11002ZM218.941 23.6928L226.09 23.6303C227.496 23.618 228.687 23.1857 229.664 22.3333C230.641 21.481 231.123 20.2892 231.11 18.7581C231.099 17.5706 230.574 16.5126 229.535 15.5842C228.496 14.6558 227.32 14.1973 226.007 14.2088L214.195 14.3121L214.416 39.6236L212.729 39.6384L212.493 12.6394L225.992 12.5213C227.789 12.5056 229.365 13.1247 230.72 14.3785C232.09 15.6322 232.783 17.0871 232.797 18.7433C232.814 20.7276 232.172 22.3192 230.87 23.5181C229.568 24.7015 227.979 25.3013 226.104 25.3177L218.956 25.3802L218.941 23.6928ZM218.971 27.0677L226.119 27.0051C228.431 26.9849 230.409 26.202 232.052 24.6563C233.695 23.1106 234.506 21.1347 234.485 18.7285C234.466 16.6192 233.606 14.7751 231.905 13.1962C230.203 11.6016 228.228 10.8142 225.978 10.8339L210.791 10.9667L211.042 39.6531L209.354 39.6679L209.089 9.29404L225.963 9.14645C228.682 9.12267 231.057 10.0707 233.09 11.9905C235.122 13.8946 236.149 16.1357 236.172 18.7138C236.197 21.5262 235.217 23.8864 233.234 25.7944C231.266 27.7023 228.899 28.6684 226.134 28.6926L218.986 28.7551L218.971 27.0677ZM219 30.4425L226.149 30.38C228.258 30.3616 230.207 29.8445 231.995 28.8288C233.798 27.813 235.231 26.4098 236.294 24.6192C237.356 22.8286 237.878 20.8552 237.859 18.699C237.842 16.7147 237.287 14.8523 236.193 13.1118C235.115 11.3712 233.658 9.99324 231.821 8.97802C229.999 7.94704 228.042 7.4407 225.948 7.45901L207.386 7.62136L207.667 39.6826L205.979 39.6974L205.684 5.94868L225.933 5.77158C227.715 5.756 229.436 6.09251 231.099 6.78113C232.777 7.4696 234.23 8.40224 235.459 9.57903C236.688 10.7402 237.669 12.1223 238.402 13.7253C239.15 15.3126 239.532 16.9656 239.547 18.6843C239.564 20.6998 239.221 22.5544 238.517 24.2482C237.813 25.9419 236.849 27.3566 235.625 28.4924C234.4 29.6125 232.97 30.4844 231.335 31.1081C229.715 31.7317 227.991 32.0515 226.163 32.0674L219.015 32.13L219 30.4425ZM217.791 39.5941L216.104 39.6088L215.897 15.9847L226.022 15.8962C226.944 15.8881 227.735 16.1703 228.397 16.7426C229.073 17.2992 229.415 17.976 229.422 18.7728C229.441 20.8665 228.325 21.9232 226.075 21.9428L218.927 22.0054L218.912 20.3179L226.06 20.2554C227.185 20.2456 227.743 19.7563 227.735 18.7876C227.732 18.4438 227.565 18.1562 227.235 17.9247C226.905 17.6932 226.505 17.5795 226.037 17.5836L217.599 17.6574L217.791 39.5941ZM256.487 23.3644L263.635 23.3019C265.041 23.2896 266.233 22.8573 267.21 22.0049C268.187 21.1526 268.668 19.9609 268.655 18.4297C268.645 17.2422 268.12 16.1843 267.08 15.2558C266.041 14.3274 264.865 13.8689 263.553 13.8804L251.741 13.9837L251.962 39.2952L250.274 39.31L250.038 12.311L263.538 12.1929C265.335 12.1772 266.91 12.7963 268.265 14.0501C269.636 15.3038 270.328 16.7587 270.343 18.4149C270.36 20.3992 269.718 21.9908 268.415 23.1898C267.113 24.3731 265.525 24.9729 263.65 24.9893L256.502 25.0518L256.487 23.3644ZM256.516 26.7393L263.665 26.6768C265.977 26.6565 267.955 25.8736 269.597 24.3279C271.24 22.7822 272.051 20.8063 272.03 18.4001C272.011 16.2909 271.152 14.4467 269.45 12.8678C267.749 11.2733 265.773 10.4858 263.523 10.5055L248.336 10.6383L248.587 39.3247L246.9 39.3395L246.634 8.96565L263.508 8.81806C266.227 8.79428 268.603 9.74229 270.635 11.6621C272.667 13.5663 273.695 15.8074 273.717 18.3854C273.742 21.1978 272.763 23.558 270.779 25.466C268.811 27.374 266.445 28.34 263.679 28.3642L256.531 28.4267L256.516 26.7393ZM256.546 30.1141L263.694 30.0516C265.803 30.0332 267.752 29.5161 269.54 28.5004C271.344 27.4846 272.777 26.0814 273.839 24.2908C274.902 22.5002 275.424 20.5268 275.405 18.3706C275.387 16.3863 274.832 14.5239 273.739 12.7834C272.661 11.0428 271.204 9.66485 269.366 8.64963C267.545 7.61865 265.587 7.11231 263.494 7.13063L244.932 7.29297L245.212 39.3543L243.525 39.369L243.23 5.6203L263.479 5.44319C265.26 5.42761 266.982 5.76413 268.644 6.45274C270.322 7.14122 271.776 8.07385 273.005 9.25065C274.234 10.4118 275.214 11.7939 275.947 13.3969C276.696 14.9842 277.077 16.6372 277.092 18.3559C277.11 20.3714 276.767 22.2261 276.063 23.9198C275.359 25.6135 274.395 27.0282 273.17 28.164C271.945 29.2841 270.516 30.156 268.88 30.7797C267.261 31.4033 265.537 31.7231 263.709 31.7391L256.561 31.8016L256.546 30.1141ZM255.337 39.2657L253.649 39.2805L253.443 15.6564L263.567 15.5678C264.489 15.5597 265.281 15.8419 265.942 16.4143C266.619 16.9709 266.961 17.6476 266.968 18.4444C266.986 20.5381 265.87 21.5948 263.62 21.6144L256.472 21.677L256.457 19.9895L263.605 19.927C264.73 19.9172 265.289 19.4279 265.28 18.4592C265.277 18.1154 265.111 17.8278 264.78 17.5963C264.45 17.3648 264.051 17.2511 263.582 17.2552L255.145 17.329L255.337 39.2657Z" fill="black"/>
</g>
<defs>
<filter id="filter0_d_6_129" x="0.085022" y="0.262817" width="281.203" height="50.8849" filterUnits="userSpaceOnUse" color-interpolation-filters="sRGB">
<feFlood flood-opacity="0" result="BackgroundImageFix"/>
<feColorMatrix in="SourceAlpha" type="matrix" values="0 0 0 0 0 0 0 0 0 0 0 0 0 0 0 0 0 0 127 0" result="hardAlpha"/>
<feOffset dy="4"/>
<feGaussianBlur stdDeviation="2"/>
<feComposite in2="hardAlpha" operator="out"/>
<feColorMatrix type="matrix" values="0 0 0 0 0 0 0 0 0 0 0 0 0 0 0 0 0 0 0.25 0"/>
<feBlend mode="normal" in2="BackgroundImageFix" result="effect1_dropShadow_6_129"/>
<feBlend mode="normal" in="SourceGraphic" in2="effect1_dropShadow_6_129" result="shape"/>
</filter>
</defs>
</svg>
